<?xml version="1.0" encoding="UTF-8"?>
<svg width="104px" height="100px" viewBox="0 0 104 100" version="1.1" xmlns="http://www.w3.org/2000/svg" xmlns:xlink="http://www.w3.org/1999/xlink">
    <!-- Generator: Sketch 41 (35326) - http://www.bohemiancoding.com/sketch -->
    <title>AtYourService</title>
    <desc>Created with Sketch.</desc>
    <defs></defs>
    <g id="Page-1" stroke="none" stroke-width="1" fill="none" fill-rule="evenodd">
        <path d="M100.444444,29.2035398 C100.444444,34.7946903 95.4711111,35.3982301 93.3333333,35.3982301 L68.4693333,35.3982301 L61.3333333,44.439823 L61.3333333,36.2831858 L58.6666667,36.2831858 C54.48,36.2831858 50.6666667,32.4876106 50.6666667,28.3185841 L50.6666667,10.619469 C50.6666667,6.18761062 54.7342222,3.53982301 58.6666667,3.53982301 L92.4444444,3.53982301 C96.3768889,3.53982301 100.444444,6.18761062 100.444444,10.619469 L100.444444,29.2035398 Z M43.5555556,73.819469 C33.7706667,73.819469 25.8097778,62.2584071 25.8097778,48.0469027 C25.8097778,33.8336283 33.7706667,22.2707965 43.5555556,22.2707965 C44.7537778,22.2707965 45.9448889,22.4557522 47.1111111,22.8053097 L47.1111111,28.3185841 C47.1111111,34.1504425 52,39.3 57.7777778,39.7858407 L57.7777778,54.6752212 L61.2284444,50.3026549 C60.4391111,63.4610619 52.816,73.819469 43.5555556,73.819469 L43.5555556,73.819469 Z M83.4515556,96.460177 L3.65955556,96.460177 C4.89866667,85.939823 17.1137778,77.0451327 34.2151111,74.4902655 L34.1973333,74.3725664 C37.024,76.2823009 40.2,77.359292 43.5555556,77.359292 C46.9093333,77.359292 50.0826667,76.2840708 52.9075556,74.3761062 L52.8906667,74.4902655 C69.9946667,77.0451327 82.2115556,85.940708 83.4515556,96.460177 L83.4515556,96.460177 Z M92.4444444,0 L58.6666667,0 C52.1866667,0 47.1111111,4.66460177 47.1111111,10.619469 L47.1111111,19.1522124 C45.9404444,18.8831858 44.752,18.7309735 43.5555556,18.7309735 C31.8097778,18.7309735 22.2542222,31.8823009 22.2542222,48.0469027 C22.2542222,57.6221239 25.6088889,66.139823 30.7848889,71.4920354 C12.2515556,75.0814159 0,85.5973451 0,98.2300885 L0,100 L87.1111111,100 L87.1111111,98.2300885 C87.1111111,85.599115 74.8595556,75.0831858 56.3253333,71.4929204 C61.5013333,66.139823 64.856,57.6221239 64.856,48.0469027 C64.856,47.2920354 64.8293333,46.5362832 64.7884444,45.7911504 L70.1973333,38.9380531 L93.3333333,38.9380531 C99.8133333,38.9380531 104,35.1168142 104,29.2035398 L104,10.619469 C104,4.66460177 98.9244444,0 92.4444444,0 L92.4444444,0 Z" id="AtYourService" fill="#F4511D"></path>
    </g>
</svg>