<?xml version="1.0" encoding="UTF-8"?>
<svg width="92px" height="100px" viewBox="0 0 92 100" version="1.1" xmlns="http://www.w3.org/2000/svg" xmlns:xlink="http://www.w3.org/1999/xlink">
    <!-- Generator: Sketch 41 (35326) - http://www.bohemiancoding.com/sketch -->
    <title>FocosOnTheFood</title>
    <desc>Created with Sketch.</desc>
    <defs></defs>
    <g id="Page-1" stroke="none" stroke-width="1" fill="none" fill-rule="evenodd">
        <path d="M26.0947269,41.0178537 L28.4268861,40.8554163 L26.2659908,35.0858486 C26.0632703,34.5333877 26.7544422,33.5483396 27.9489202,33.1079345 C29.0324261,32.7109618 30.3011766,32.9498403 30.5117612,33.5118563 L32.670909,39.2883732 L34.5408305,37.9011405 C34.922679,37.6188295 35.2818088,37.3391245 35.6199675,37.0741865 C36.0044374,36.7736339 36.4797819,36.4027207 36.8476496,36.1560243 C37.6567839,38.6907426 35.3560814,41.9021385 31.7307054,43.2398582 C30.6157429,43.6507293 29.4815568,43.8600737 28.3622253,43.8600737 C25.9042396,43.8600737 23.9032488,42.8185634 23.2068341,41.1898462 C23.646353,41.1394646 24.2492716,41.1116678 24.7342279,41.0899516 C25.1650089,41.0717099 25.62113,41.0508623 26.0947269,41.0178537 L26.0947269,41.0178537 Z M22.9875115,36.2889277 L23.5065458,37.6752917 C22.0036182,37.7795296 20.7436056,38.0375184 20.0035012,39.1493893 C19.4530102,39.9754747 19.4101943,41.0204596 19.8715581,42.2530728 C21.0205987,45.3402519 24.3532533,47.3346703 28.3622253,47.3346703 C29.8992309,47.3346703 31.4414792,47.0523594 32.947902,46.4972925 C38.5104818,44.4438059 41.7076981,39.1980337 40.0728274,34.800063 C39.3405871,32.8456024 38.1067884,32.4356 37.2006629,32.4356 C36.180944,32.4356 35.2984109,32.9533149 34.3066534,33.690798 L33.7876191,32.3000907 C33.131399,30.548894 31.2946817,29.4179128 29.1084463,29.4179128 C28.3106713,29.4179128 27.5128964,29.5629773 26.7343449,29.8505001 C23.7136352,30.9658456 22.0674052,33.789824 22.9875115,36.2889277 L22.9875115,36.2889277 Z M60.0434148,78.6642394 C48.1685392,87.6026392 34.6352004,93.5633098 19.8051497,96.3907628 C18.5477585,95.107768 15.6817105,91.7365406 15.4519024,87.5974274 L16.3318141,87.4384646 C29.5077707,85.0496794 42.1708095,79.5042232 52.9490723,71.4023325 C64.9025895,62.4396105 73.7384057,52.1991056 79.2109845,40.9657347 L79.3569083,40.6660508 C79.7999225,40.5791858 80.7182811,40.4297782 81.8262533,40.4297782 C85.2873558,40.4297782 87.4919409,41.8031125 88.3884547,44.5150352 C81.6366398,58.1285047 72.1035351,69.6155212 60.0434148,78.6642394 L60.0434148,78.6642394 Z M3.95275864,4.74045898 L75.9517288,39.6749221 C70.7142008,50.3202175 62.2707186,60.0612491 50.843226,68.6287357 C40.3480729,76.5178074 28.5264987,81.695825 15.705303,84.0203301 L15.5541364,84.0472583 L3.95275864,4.74045898 Z M91.9491698,44.2657329 C90.7835271,39.5515739 87.188734,36.9551816 81.8262533,36.9551816 C80.5793477,36.9551816 79.5115701,37.1045892 78.8640879,37.2218569 L2.51449187,0.176576316 C1.93167053,-0.106603309 1.24224618,-0.0457978676 0.717095317,0.334670463 C0.193692042,0.715138793 -0.0745630592,1.35098997 0.0180592232,1.98684116 L12.1341023,84.8194874 C10.6390389,93.0447262 17.7893043,99.3102926 18.0986278,99.5760992 C18.4193106,99.8523296 18.8264991,100 19.2424256,100 C19.3464072,100 19.4521364,99.9913135 19.5569919,99.9713346 C35.2739446,97.1160848 49.6050584,90.8791839 62.1510087,81.4360989 C74.828902,71.923522 84.812885,59.8119468 91.8250909,45.4384092 C92.0024713,45.0735766 92.0470348,44.6592309 91.9491698,44.2657329 L91.9491698,44.2657329 Z M17.0920158,24.0809324 C16.8333725,23.4841705 16.8263821,22.8248658 17.0684234,22.2220232 C17.3122122,21.6191807 17.7788188,21.1448983 18.379116,20.8886468 C18.6840705,20.7600867 19.0030057,20.694938 19.3298051,20.694938 C20.3189412,20.694938 21.2102122,21.2804076 21.599051,22.1794594 C21.855073,22.7788273 21.8611896,23.440738 21.6165269,24.0453178 C21.3709905,24.6507663 20.9017625,25.1250487 20.2909798,25.3830375 C19.9886466,25.5124662 19.6688376,25.5784836 19.342912,25.5784836 C18.358145,25.5784836 17.4773595,24.9964886 17.0920158,24.0809324 L17.0920158,24.0809324 Z M21.6645857,28.5796664 C23.1281925,27.9594509 24.2623786,26.8110967 24.8583068,25.3456856 C25.4533613,23.8794058 25.437633,22.2724049 24.8119957,20.8130743 C23.868297,18.6310276 21.7161396,17.2203414 19.3298051,17.2203414 C18.5302826,17.2203414 17.7499835,17.3793042 17.0055101,17.6937552 C15.5453985,18.3165766 14.4155814,19.4649308 13.8248959,20.927736 C13.2324628,22.3940158 13.2534339,24.0001481 13.8738284,25.4368938 C14.7965561,27.6328388 16.9434707,29.0530802 19.342912,29.0530802 C20.145056,29.0530802 20.9279764,28.8932488 21.6645857,28.5796664 L21.6645857,28.5796664 Z M51.8786733,39.3569965 C52.7253807,38.999113 53.615778,38.8175654 54.5271463,38.8175654 C57.2638726,38.8175654 59.7349652,40.4384647 60.8193449,42.9427802 C61.5323617,44.6036374 61.5498376,46.4443049 60.870025,48.1234038 C60.1893386,49.8033712 58.8900053,51.1202434 57.2105711,51.8299297 C56.3612422,52.1912878 55.4656022,52.3737041 54.5516125,52.3737041 C51.8122648,52.3737041 49.3612695,50.7536734 48.3004823,48.229379 C46.8237685,44.8147191 48.4324253,40.8337001 51.8786733,39.3569965 L51.8786733,39.3569965 Z M54.5516125,55.8483007 C55.9409468,55.8483007 57.2979506,55.5720703 58.5824294,55.0265586 C61.1181828,53.9537769 63.0824743,51.9637017 64.1118049,49.420297 C65.1411356,46.8803668 65.1131741,44.0963463 64.0322896,41.5746578 C62.3930499,37.7882161 58.6619448,35.3429687 54.5271463,35.3429687 C53.1430548,35.3429687 51.7912937,35.6174619 50.5033197,36.1629735 C45.2797725,38.3997451 42.8523697,44.4290389 45.0822948,49.5844716 C46.6804661,53.3900236 50.3967167,55.8483007 54.5516125,55.8483007 L54.5516125,55.8483007 Z M39.8884567,58.6557748 C41.6299303,62.7262647 39.720688,67.4465042 35.6260841,69.1785907 C34.6107341,69.6129152 33.5420827,69.8318148 32.4507126,69.8318148 C29.2150493,69.8318148 26.3105543,67.9155748 25.0479204,64.9421887 C24.1985915,62.9660119 24.1723777,60.7830966 24.9753954,58.7973646 C25.7784131,56.8125013 27.3145449,55.2567506 29.3041764,54.4132923 C30.3107884,53.9859169 31.3715756,53.7687546 32.4568292,53.7687546 C35.7012304,53.7687546 38.6188323,55.6876006 39.8884567,58.6557748 L39.8884567,58.6557748 Z M27.9331919,51.2184007 C25.0854936,52.4232171 22.8835299,54.6547768 21.7327417,57.5013401 C20.5819535,60.348772 20.6177791,63.4759089 21.8306067,66.300756 C23.6384888,70.5562682 27.8064916,73.3064114 32.4507126,73.3064114 C34.0183011,73.3064114 35.5509377,72.9928291 36.99969,72.3743509 C42.8619814,69.8926203 45.6004553,63.1293179 43.1057703,57.2954702 C41.285655,53.0425639 37.106293,50.294158 32.4568292,50.294158 C30.8971049,50.294158 29.37408,50.6051344 27.9331919,51.2184007 L27.9331919,51.2184007 Z" id="FocosOnTheFood" fill="#F4511D"></path>
    </g>
</svg>