<?xml version="1.0" encoding="UTF-8"?>
<svg width="102px" height="100px" viewBox="0 0 102 100" version="1.1" xmlns="http://www.w3.org/2000/svg" xmlns:xlink="http://www.w3.org/1999/xlink">
    <!-- Generator: Sketch 41 (35326) - http://www.bohemiancoding.com/sketch -->
    <title>MoreOrderLessTables</title>
    <desc>Created with Sketch.</desc>
    <defs></defs>
    <g id="Page-1" stroke="none" stroke-width="1" fill="none" fill-rule="evenodd">
        <path d="M51.6872548,-1.42108547e-14 L41.0025769,36.9469415 L32.1846204,30.2730276 L0,30.7045198 L15.2133607,49.8599323 L22.8836602,92.0199022 L45.9632007,100 L75.188691,95.5772045 L82.9452113,50.7555295 L102,33.9072626 L61.8202872,36.0939917 L78.5370702,8.26023331 L68.9322446,2.26449806 L51.0159048,35.4818748 L61.4611736,3.13668102 L51.6872548,-1.42108547e-14 Z M40.4852524,50.9980349 L53.9490849,4.23882594 L57.2455642,5.29748714 L42.3946656,51.2831877 L40.4852524,50.9980349 Z M70.1862126,6.99084333 L73.9749036,9.35736087 L57.7838162,36.313919 L55.2373738,36.4527324 L50.32865,43.8073337 L70.1862126,6.99084333 Z M6.85748051,33.9582724 L31.0788182,33.6346532 L40.0474518,40.4189489 L38.980993,44.1242631 L17.494444,47.3504202 L6.85748051,33.9582724 Z M57.093213,39.7014676 L92.5793352,37.7697872 L80.6867296,48.2853201 L49.1383012,51.6210227 L57.093213,39.7014676 Z M28.0778334,49.1441234 L37.9630858,47.6606598 L37.1444071,50.4988084 L28.0778334,49.1441234 Z M20.8495199,51.4462516 L43.6503078,54.8538696 L35.2994501,68.9710248 L20.8495199,51.4462516 Z M47.7947641,55.1264791 L79.3683053,51.7882678 L72.300714,92.6303466 L47.7947641,96.339842 L47.7947641,55.1264791 Z M19.5821584,55.1699628 L33.487977,72.034118 L25.1999015,86.0442363 L19.5821584,55.1699628 Z M26.8397702,89.8473889 L44.4463849,60.0836225 L44.4463849,95.9367814 L26.8397702,89.8473889 Z" id="MoreOrderLessTables" fill="#F4511D"></path>
    </g>
</svg>