<?xml version="1.0" encoding="UTF-8"?>
<svg width="132px" height="100px" viewBox="0 0 132 100" version="1.1" xmlns="http://www.w3.org/2000/svg" xmlns:xlink="http://www.w3.org/1999/xlink">
    <!-- Generator: Sketch 41 (35326) - http://www.bohemiancoding.com/sketch -->
    <title>Partner</title>
    <desc>Created with Sketch.</desc>
    <defs></defs>
    <g id="Page-1" stroke="none" stroke-width="1" fill="none" fill-rule="evenodd">
        <path d="M6.9519003,85.369916 C13.1583067,73.4362691 24.9740447,64.6976074 38.6240602,62.0731954 C41.2831394,63.6228589 44.1903389,64.4815323 47.2391595,64.4815323 C50.2891132,64.4815323 53.2654238,63.6026019 56.0106087,61.9842895 C60.6014008,62.8170789 65.0075188,64.3149745 69.1190648,66.4577191 L69.1995056,66.3069167 C69.5767844,66.7581985 69.963127,67.197101 70.3619322,67.6134957 C58.7342672,70.2559139 48.5953239,76.5457246 41.4111649,85.369916 L6.9519003,85.369916 Z M47.2391595,4.50156429 C55.3047688,4.50156429 62.5965599,13.0219001 64.7695952,24.8497603 C62.4741992,29.8228634 61.1361623,35.7187873 61.1361623,42.0423597 C61.1361623,44.5125931 61.3468946,46.9175538 61.7321042,49.2291071 L61.6210732,49.1728376 C58.110001,56.0410993 52.8677516,59.979968 47.2391595,59.979968 C37.1965187,59.979968 29.0278092,47.5376443 29.0278092,32.2413289 C29.0278092,16.9450134 37.1965187,4.50156429 47.2391595,4.50156429 L47.2391595,4.50156429 Z M84.3620352,14.4702784 C94.6697909,14.4702784 103.05603,26.8383263 103.05603,42.0423597 C103.05603,57.2463931 94.6697909,69.614441 84.3620352,69.614441 C81.3925224,69.614441 78.5850242,68.5835828 76.0890926,66.7570731 L76.0585024,66.5770105 L75.8851581,66.6040199 C69.8283036,62.0383083 65.66804,52.7459542 65.66804,42.0423597 C65.66804,26.8383263 74.0554125,14.4702784 84.3620352,14.4702784 L84.3620352,14.4702784 Z M65.0131836,59.7571406 C63.555052,59.2304576 62.0719951,58.771298 60.5674117,58.3807873 C61.4987125,57.4320826 62.3801627,56.3865943 63.2026985,55.2420716 C63.7215985,56.8187445 64.3254712,58.3290193 65.0131836,59.7571406 L65.0131836,59.7571406 Z M93.7577505,71.98564 C107.165311,75.0365752 118.562983,83.9699296 124.875888,95.4984357 L40.2906582,95.4984357 C47.1269956,82.9334444 59.6916263,73.7716356 74.5471212,71.3790542 L74.9017407,71.3227847 C77.7930786,73.1121565 80.9937172,74.1160053 84.3620352,74.1160053 C87.4119889,74.1160053 90.3214543,73.292219 92.9895973,71.8112044 L93.7577505,71.98564 Z M33.1733443,100 L132,100 L130.587187,96.4280087 C124.540529,82.8861779 112.352044,72.5550879 97.6370378,68.3371221 C103.647441,62.5346058 107.587908,52.9136375 107.587908,42.0423597 C107.587908,24.356839 97.1691214,9.96871413 84.3620352,9.96871413 C78.0162736,9.96871413 72.258523,13.5058183 68.0620043,19.2228049 C64.5056133,7.66954017 56.445669,0 47.2391595,0 C34.6983211,0 24.4959316,14.4635261 24.4959316,32.2413289 C24.4959316,43.0720926 28.2868473,52.6660515 34.0819858,58.5158343 C19.3998352,62.5087218 7.0776599,72.9996174 1.30857967,86.7541471 L0,89.8714803 L38.1640746,89.8714803 C36.8203728,91.9602062 35.6103615,94.146841 34.5850242,96.446015 L33.1733443,100 Z" id="Partner" fill="#F4511D"></path>
    </g>
</svg>