<?xml version="1.0" encoding="UTF-8"?>
<svg width="108px" height="100px" viewBox="0 0 108 100" version="1.1" xmlns="http://www.w3.org/2000/svg" xmlns:xlink="http://www.w3.org/1999/xlink">
    <!-- Generator: Sketch 41 (35326) - http://www.bohemiancoding.com/sketch -->
    <title>WeSperadTheWord</title>
    <desc>Created with Sketch.</desc>
    <defs></defs>
    <g id="Page-1" stroke="none" stroke-width="1" fill="none" fill-rule="evenodd">
        <path d="M33.1778885,31.3150043 C32.1485926,31.1436989 31.1869147,31.8373916 31.0159914,32.8624003 L29.1377142,44.1572621 C28.9677302,45.1822708 29.6589362,46.1526877 30.6816581,46.3230519 C30.7859025,46.3409354 30.891086,46.3494065 30.992513,46.3494065 C31.894086,46.3494065 32.6904756,45.6971283 32.8435552,44.776597 L34.7218324,33.4817353 C34.8918165,32.4557853 34.2006104,31.4863097 33.1778885,31.3150043 L33.1778885,31.3150043 Z M25.6647797,31.3150043 C24.6373621,31.1436989 23.6738059,31.8373916 23.5028826,32.8624003 L21.6246054,44.1572621 C21.4546213,45.1822708 22.1458274,46.1526877 23.1685493,46.3230519 C23.2727937,46.3409354 23.3770381,46.3494065 23.4794042,46.3494065 C24.3809772,46.3494065 25.1764276,45.6971283 25.3304464,44.776597 L27.2087236,33.4817353 C27.3787076,32.4557853 26.6875016,31.4863097 25.6647797,31.3150043 L25.6647797,31.3150043 Z M18.1516709,31.3150043 C17.1214358,31.1436989 16.160697,31.8373916 15.9897738,32.8624003 L14.1114966,44.1572621 C13.9415125,45.1822708 14.6327185,46.1526877 15.6554405,46.3230519 C15.7596849,46.3409354 15.8639293,46.3494065 15.9662954,46.3494065 C16.8678684,46.3494065 17.6633188,45.6971283 17.8173375,44.776597 L19.6956147,33.4817353 C19.8655988,32.4557853 19.1743928,31.4863097 18.1516709,31.3150043 L18.1516709,31.3150043 Z M82.6225967,87.4787045 C75.1517491,87.4787045 61.2487413,81.2204098 57.2348629,72.5600745 C54.9959565,65.3831311 53.8117027,56.0432217 53.8117027,45.5305291 C53.8117027,34.3796768 55.3124462,24.4693768 58.1495839,16.793577 L58.5336916,16.0829419 C60.3105418,12.7999021 64.2474108,9.63545834 69.6192836,7.17411971 C74.1365403,5.10339505 79.2416978,3.76495393 82.6225967,3.76495393 C94.7468761,3.76495393 104.243446,22.0569826 104.243446,45.4081681 C104.243446,68.9993694 94.7468761,87.4787045 82.6225967,87.4787045 L82.6225967,87.4787045 Z M38.6258315,69.3033894 L38.6314664,69.2591512 L36.7945113,69.029489 L35.1266011,68.7772371 L35.1162706,68.8205341 L20.8225811,67.0359459 L20.8235202,67.0331222 L18.6963713,66.7705166 L16.8547205,66.5417957 L16.8537813,66.5446194 L13.7255107,66.1596529 L13.4963608,66.1455343 C8.12542718,66.1455343 3.7565544,61.7650104 3.7565544,56.3792438 L3.7565544,34.8644146 C3.7565544,29.482413 8.12542718,25.1028303 13.4963608,25.1028303 L13.6691623,25.1028303 L53.874625,17.6566927 C51.3718206,25.3974379 50.0551483,34.952891 50.0551483,45.5305291 C50.0551483,55.2779948 51.0562701,64.087987 52.9514518,71.235752 C49.5996661,70.8809051 43.4595779,70.0215544 38.6258315,69.3033894 L38.6258315,69.3033894 Z M28.24835,96.3734081 L13.5095088,96.3734081 L19.9050427,70.7161884 L34.1987322,72.4998353 L28.24835,96.3734081 Z M82.6225967,0 C75.0409308,0 60.8073462,5.34811705 55.6993713,13.4898299 L13.3179245,21.3388176 C5.95789529,21.4348239 0,27.4653389 0,34.8644146 L0,56.3792438 C0,63.799968 5.99076514,69.8455428 13.3770902,69.909547 L16.1494274,70.2502753 L8.69830172,100 L31.1812798,100 L37.9440169,73.0081041 C41.8733728,73.5916719 50.9971043,74.9159945 54.3207158,75.1362443 C59.6399969,85.0070122 74.3506639,91.2436584 82.6225967,91.2436584 C97.0900269,91.2436584 108,71.5378896 108,45.4081681 C108,19.5212861 97.0900269,0 82.6225967,0 L82.6225967,0 Z M86.3998122,71.7628456 C84.0510265,71.7628456 80.7584066,65.2777124 79.4530039,54.8205529 L84.521535,54.8205529 C88.6368403,54.8205529 91.0955052,50.0352964 91.0955052,45.4081681 C91.0955052,40.7810397 88.6368403,35.9957833 84.521535,35.9957833 L79.4530039,35.9957833 C80.7584066,25.5386237 84.0510265,19.0534906 86.3998122,19.0534906 C89.0866877,19.0534906 92.9737824,28.4376382 92.9737824,45.4081681 C92.9737824,62.3777567 89.0866877,71.7628456 86.3998122,71.7628456 L86.3998122,71.7628456 Z M78.8867034,45.4081681 C78.8867034,43.4400384 78.9561996,41.5537965 79.0848616,39.7607372 L84.521535,39.7607372 C85.9696867,39.7607372 87.3389508,42.5053886 87.3389508,45.4081681 C87.3389508,48.3109475 85.9696867,51.055599 84.521535,51.055599 L79.0848616,51.055599 C78.9561996,49.2615984 78.8867034,47.3762977 78.8867034,45.4081681 L78.8867034,45.4081681 Z M86.3998122,15.2885367 C79.0801659,15.2885367 75.130149,30.8067355 75.130149,45.4081681 C75.130149,60.0086594 79.0801659,75.5277995 86.3998122,75.5277995 C93.5363264,75.5277995 96.7303368,60.3992734 96.7303368,45.4081681 C96.7303368,30.4151803 93.5363264,15.2885367 86.3998122,15.2885367 L86.3998122,15.2885367 Z" id="WeSperadTheWord" fill="#F4511D"></path>
    </g>
</svg>