<?xml version="1.0" encoding="UTF-8"?>
<svg width="100px" height="100px" viewBox="0 0 100 100" version="1.1" xmlns="http://www.w3.org/2000/svg" xmlns:xlink="http://www.w3.org/1999/xlink">
    <!-- Generator: Sketch 41 (35326) - http://www.bohemiancoding.com/sketch -->
    <title>WorksLikeClockwork</title>
    <desc>Created with Sketch.</desc>
    <defs></defs>
    <g id="Page-1" stroke="none" stroke-width="1" fill="none" fill-rule="evenodd">
        <path d="M50,96.5517241 C24.3310345,96.5517241 3.44827586,75.6681034 3.44827586,50 C3.44827586,24.3318966 24.3310345,3.44827586 50,3.44827586 C75.6689655,3.44827586 96.5517241,24.3318966 96.5517241,50 C96.5517241,75.6681034 75.6689655,96.5517241 50,96.5517241 M50,0 C22.4301724,0 0,22.4301724 0,50 C0,77.5698276 22.4301724,100 50,100 C77.5698276,100 100,77.5698276 100,50 C100,22.4301724 77.5698276,0 50,0 M51.7241379,87.887069 L51.7241379,79.3103448 C51.7241379,78.3577586 50.9525862,77.5862069 50,77.5862069 C49.0482759,77.5862069 48.2758621,78.3577586 48.2758621,79.3103448 L48.2758621,87.887069 C28.7301724,87.0077586 12.9922414,71.2698276 12.112931,51.7241379 L20.6896552,51.7241379 C21.6422414,51.7241379 22.4137931,50.9517241 22.4137931,50 C22.4137931,49.0474138 21.6422414,48.2758621 20.6896552,48.2758621 L12.112931,48.2758621 C12.9922414,28.7301724 28.7301724,12.9922414 48.2758621,12.112931 L48.2758621,20.6896552 C48.2758621,21.6413793 49.0482759,22.4137931 50,22.4137931 C50.9525862,22.4137931 51.7241379,21.6413793 51.7241379,20.6896552 L51.7241379,12.112931 C71.2698276,12.9922414 87.0077586,28.7301724 87.887069,48.2758621 L79.3103448,48.2758621 C78.3586207,48.2758621 77.5862069,49.0474138 77.5862069,50 C77.5862069,50.9517241 78.3586207,51.7241379 79.3103448,51.7241379 L87.887069,51.7241379 C87.0077586,71.2698276 71.2698276,87.0077586 51.7241379,87.887069 M50,8.62068966 C27.1836207,8.62068966 8.62068966,27.1836207 8.62068966,50 C8.62068966,72.8163793 27.1836207,91.3793103 50,91.3793103 C72.8163793,91.3793103 91.3793103,72.8163793 91.3793103,50 C91.3793103,27.1836207 72.8163793,8.62068966 50,8.62068966 M64.6551724,52.5862069 L56.3887931,52.5862069 C56.7137931,51.7862069 56.8965517,50.9146552 56.8965517,50 C56.8965517,49.0853448 56.7137931,48.2137931 56.3887931,47.4137931 L64.6551724,47.4137931 C66.1293103,47.4137931 67.2413793,48.5258621 67.2413793,50 C67.2413793,51.4741379 66.1293103,52.5862069 64.6551724,52.5862069 M50,53.4482759 C48.0982759,53.4482759 46.5517241,51.9017241 46.5517241,50 C46.5517241,48.0982759 48.0982759,46.5517241 50,46.5517241 C51.9017241,46.5517241 53.4482759,48.0982759 53.4482759,50 C53.4482759,51.9017241 51.9017241,53.4482759 50,53.4482759 M44.2793103,46.1517241 L30.5232759,32.3956897 C30.2103448,32.0853448 29.3784483,31.262069 29.3775862,30.9396552 C29.3775862,30.9137931 29.4258621,30.7706897 29.6672414,30.5301724 C30.4336207,29.762931 30.7663793,29.7637931 31.5396552,30.5301724 L45.6586207,44.6482759 C45.1293103,45.0793103 44.662931,45.5844828 44.2793103,46.1517241 M64.6551724,43.9655172 L53.4482759,43.9655172 L53.4482759,44.0362069 C52.4327586,43.4465517 51.2568966,43.1034483 50,43.1034483 C49.6810345,43.1034483 49.3698276,43.1327586 49.0612069,43.175 L33.9724138,28.0853448 C31.8525862,25.9862069 29.3318966,25.987931 27.2293103,28.0913793 C26.3637931,28.9568966 25.9267241,29.9181034 25.9293103,30.9474138 C25.9336207,32.7034483 27.2353448,33.9931034 28.0913793,34.8405172 L43.1103448,49.8594828 C43.1094828,49.9068966 43.1034483,49.9525862 43.1034483,50 C43.1034483,53.8025862 46.1974138,56.8965517 50,56.8965517 C51.2568966,56.8965517 52.4327586,56.5534483 53.4482759,55.9637931 L53.4482759,56.0344828 L64.6551724,56.0344828 C68.0387931,56.0344828 70.6896552,53.3836207 70.6896552,50 C70.6896552,46.6163793 68.0387931,43.9655172 64.6551724,43.9655172" id="WorksLikeClockwork" fill="#F4511D"></path>
    </g>
</svg>