<?xml version="1.0" encoding="UTF-8"?>
<svg width="108px" height="100px" viewBox="0 0 108 100" version="1.1" xmlns="http://www.w3.org/2000/svg" xmlns:xlink="http://www.w3.org/1999/xlink">
    <!-- Generator: Sketch 41 (35326) - http://www.bohemiancoding.com/sketch -->
    <title>YourMakeTheRules1</title>
    <desc>Created with Sketch.</desc>
    <defs></defs>
    <g id="Page-1" stroke="none" stroke-width="1" fill="none" fill-rule="evenodd">
        <path d="M0,0 L0,76.5765766 L42.3,76.5765766 L42.3,87.3864865 L24.3,87.3864865 L24.3,100 L84.6,100 L84.6,87.3864865 L67.5,87.3864865 L67.5,76.5765766 L108,76.5765766 L108,0 L0,0 Z M3.6,3.6036036 L104.4,3.6036036 L104.4,72.972973 L63.9,72.972973 L45.9,72.972973 L3.6,72.972973 L3.6,3.6036036 Z M45.9,87.3873874 L63.9,87.3873874 L63.9,76.5765766 L45.9,76.5765766 L45.9,87.3873874 Z M27.9,90.990991 L45.9,90.990991 L45.9,90.9900901 L63.9,90.9900901 L63.9,90.990991 L81,90.990991 L81,96.3963964 L27.9,96.3963964 L27.9,90.990991 Z M6.3,70.2693694 L101.7,70.2693694 L101.7,6.30540541 L6.3,6.30540541 L6.3,70.2693694 Z M9.9,66.6666667 L98.1,66.6666667 L98.1,9.90990991 L9.9,9.90990991 L9.9,66.6666667 Z" id="YourMakeTheRules1" fill="#F4511D"></path>
    </g>
</svg>