<?xml version="1.0" encoding="UTF-8"?>
<svg width="89px" height="100px" viewBox="0 0 89 100" version="1.1" xmlns="http://www.w3.org/2000/svg" xmlns:xlink="http://www.w3.org/1999/xlink">
    <!-- Generator: Sketch 41 (35326) - http://www.bohemiancoding.com/sketch -->
    <title>YourMakeTheRules</title>
    <desc>Created with Sketch.</desc>
    <defs></defs>
    <g id="Page-1" stroke="none" stroke-width="1" fill="none" fill-rule="evenodd">
        <path d="M44.5089171,88.9830508 C34.2067291,88.9830508 25.8255327,80.6194915 25.8255327,70.3389831 C25.8255327,60.0584746 34.2067291,51.6949153 44.5089171,51.6949153 C54.8111051,51.6949153 63.1923015,60.0584746 63.1923015,70.3389831 C63.1923015,80.6194915 54.8111051,88.9830508 44.5089171,88.9830508 L44.5089171,88.9830508 Z M44.5089171,48.3050847 C32.3341444,48.3050847 22.4285537,58.1898305 22.4285537,70.3389831 C22.4285537,82.4881356 32.3341444,92.3728814 44.5089171,92.3728814 C56.6836897,92.3728814 66.5892804,82.4881356 66.5892804,70.3389831 C66.5892804,58.1898305 56.6836897,48.3050847 44.5089171,48.3050847 L44.5089171,48.3050847 Z M70.8355042,70.3389831 C70.8355042,79.8118644 65.7833472,88.1279661 58.2284659,92.7508475 C54.2752316,95.1355932 49.6459985,96.5101695 44.6991479,96.5101695 C30.2390576,96.5101695 18.4753194,84.7669492 18.4753194,70.3322034 C18.4753194,55.9008475 30.2390576,44.159322 44.6991479,44.159322 C52.2659186,44.159322 59.0896001,47.3762712 63.8818882,52.5059322 L63.877642,52.5127119 L64.6547009,53.4330508 C68.6402065,58.1576271 70.8355042,64.1618644 70.8355042,70.3389831 L70.8355042,70.3389831 Z M4.09335967,17.0838983 L13.3891926,5.15762712 L34.9362303,42.4271186 C30.4878863,43.9822034 26.5227626,46.5669492 23.3262054,49.8974576 L4.09335967,17.0838983 Z M72.7284707,3.38983051 L63.419899,19.4915254 L25.5979351,19.4915254 L16.2885142,3.38983051 L72.7284707,3.38983051 Z M50.7364288,41.3313559 C48.6965429,40.8983051 46.6065516,40.6779661 44.5089171,40.6779661 C42.4112826,40.6779661 40.3212912,40.8983051 38.2805561,41.3313559 L27.880705,22.8813559 L61.1371292,22.8813559 L50.7364288,41.3313559 Z M84.9423086,17.040678 L65.6797393,49.4788136 C62.4755389,46.2711864 58.537591,43.7983051 54.1444479,42.3186441 L75.9454098,4.60932203 L84.9423086,17.040678 Z M89,16.8576271 L76.7989008,0 L13.1055449,0 L0,16.8144068 L20.8489585,52.3838983 C16.9305432,57.5245763 14.785351,63.8542373 14.785351,70.3389831 C14.785351,86.6940678 28.1193427,100 44.5089171,100 C50.1767765,100 55.4769129,98.4067797 59.9889503,95.6483051 C68.5756639,90.4652542 74.3284478,81.0567797 74.3284478,70.3322034 C74.3284478,63.4813559 71.9743414,57.1728814 68.0389412,52.1542373 L89,16.8576271 Z M46.896144,60.3355932 C46.3636676,59.9262712 45.7607038,59.8618644 45.2885237,59.8618644 C44.9734539,59.8618644 43.8074409,59.8618644 43.1093617,60.9949153 C42.9208294,61.3474576 42.7942919,61.7533898 42.6023626,62.0974576 C42.1955744,62.9516949 41.566284,63.2957627 40.837632,63.4533898 C39.9544175,63.6754237 39.7319154,63.7067797 39.4168456,64.0542373 C39.1637706,64.3338983 38.9412685,64.809322 38.9412685,65.2838983 C38.9412685,65.7245763 39.1331978,66.1949153 39.4788404,66.5084746 C39.9849903,66.9838983 40.6151299,67.0144068 41.1824254,67.0144068 L42.8104276,67.0144068 L42.8104276,78.790678 C42.8104276,79.8932203 42.7025735,81.5322034 44.3755856,82.0347458 C44.6252636,82.0991525 44.9437304,82.1601695 45.3810914,82.1601695 C45.8872413,82.1601695 46.5479537,82.0991525 47.0846764,81.5322034 C47.8447504,80.8050847 47.905896,79.8313559 47.905896,78.6940678 L47.905896,63.109322 C47.8753232,62.1627119 47.8753232,61.090678 46.896144,60.3355932 L46.896144,60.3355932 Z" id="YourMakeTheRules" fill="#F4511D"></path>
    </g>
</svg>