<?xml version="1.0" encoding="UTF-8"?>
<svg width="931px" height="394px" viewBox="0 0 931 394" version="1.1" xmlns="http://www.w3.org/2000/svg" xmlns:xlink="http://www.w3.org/1999/xlink">
    <!-- Generator: Sketch 41 (35326) - http://www.bohemiancoding.com/sketch -->
    <title>Page 1</title>
    <desc>Created with Sketch.</desc>
    <defs></defs>
    <g id="Page-1" stroke="none" stroke-width="1" fill="none" fill-rule="evenodd">
        <g>
            <path d="M303.0626,114.852 C302.5156,114.384 301.9686,113.915 301.4206,113.447 C299.3386,115.586 297.1326,117.624 295.2616,119.934 C294.7936,120.512 295.4066,121.966 295.5226,123.017 C296.6606,122.826 298.3696,123.034 298.8326,122.372 C300.4726,120.026 301.6866,117.383 303.0626,114.852 M510.1846,113.594 C509.6266,114.041 509.0676,114.487 508.5096,114.934 C509.9236,117.424 511.1956,120.014 512.8436,122.337 C513.2956,122.973 514.8776,122.807 515.9406,123.009 C516.1286,121.827 516.9036,120.148 516.3986,119.55 C514.5586,117.369 512.2906,115.55 510.1846,113.594 M345.0386,44.446 C344.5136,44.023 343.9886,43.599 343.4636,43.175 C341.4326,45.197 339.2386,47.09 337.4666,49.318 C336.9126,50.015 337.4966,51.615 337.5596,52.802 C338.7476,52.566 340.5286,52.732 341.0126,52.019 C342.6076,49.666 343.7336,46.995 345.0386,44.446 M636.2406,99.271 C635.7026,98.902 635.1646,98.533 634.6256,98.164 C632.6356,100.373 630.4816,102.465 628.7626,104.868 C628.2886,105.53 629.1096,107.119 629.3366,108.283 C630.3566,107.995 631.9136,108.022 632.3006,107.363 C633.8146,104.784 634.9586,101.987 636.2406,99.271 M471.5746,51.55 C471.0986,51.977 470.6236,52.404 470.1476,52.831 C471.4646,55.231 472.5686,57.793 474.2056,59.95 C474.8456,60.792 476.6836,60.725 477.9756,61.072 C477.9776,59.768 478.5226,57.993 477.8776,57.25 C476.0356,55.125 473.7096,53.42 471.5746,51.55 M565.9186,61.071 C565.4246,61.456 564.9306,61.841 564.4366,62.225 C565.8846,64.805 567.1716,67.499 568.8886,69.885 C569.3396,70.512 571.1216,70.181 572.2926,70.29 C572.3286,69.225 572.8316,67.744 572.3186,67.169 C570.3626,64.978 568.0796,63.079 565.9186,61.071 M407.8546,81.315 C407.2516,81.125 406.6486,80.934 406.0456,80.744 C404.7106,83.123 403.1246,85.407 402.1666,87.929 C401.7996,88.896 402.8656,90.407 403.2786,91.67 C404.3966,90.933 406.1946,90.405 406.4986,89.417 C407.2986,86.823 407.4466,84.029 407.8546,81.315 M503.9306,37.256 C500.7566,33.205 497.4786,29.231 494.4316,25.086 C488.8566,17.504 490.4806,12.727 499.4916,10.755 C518.7786,6.532 538.0036,8.076 556.9246,12.738 C583.3376,19.246 607.4506,30.611 627.5586,49.333 C641.4416,62.259 652.3596,77.194 656.5336,96.187 C660.1006,112.42 657.4816,127.958 650.9736,143 C649.3366,146.784 646.2126,148.404 642.1676,148.381 C631.8416,148.32 621.5156,148.205 611.1896,148.204 C514.8786,148.195 418.5666,148.196 322.2556,148.224 C311.5946,148.227 300.9276,148.228 290.2746,148.588 C283.6506,148.811 279.9026,145.885 277.3146,139.938 C266.7636,115.687 270.5626,92.837 283.3456,70.666 C301.7866,38.684 329.5706,18.838 364.4596,8.356 C381.2626,3.308 398.3816,-0.181 416.0706,0.391 C441.9126,1.226 464.6686,10.791 485.6196,25.291 C491.5956,29.428 497.4146,33.793 503.3046,38.054 C503.5136,37.788 503.7216,37.522 503.9306,37.256" id="Fill-1" fill="#000000"></path>
            <path d="M464.9011,327.0618 L537.8871,327.0618 C570.2161,327.0618 602.5451,327.0608 634.8741,327.0638 C636.5401,327.0638 638.2101,327.0238 639.8711,327.1268 C653.2581,327.9538 659.2581,333.7028 658.6441,347.0528 C658.2361,355.9168 656.8931,364.9998 654.2301,373.4358 C650.3441,385.7478 640.9951,392.2038 627.9071,392.7708 C624.5791,392.9148 621.2481,393.0438 617.9181,393.0438 C528.7631,393.0558 439.6091,393.0518 350.4551,393.0428 C335.9871,393.0418 321.4811,393.6688 307.0631,392.8198 C288.3151,391.7158 279.6491,384.0748 274.4821,365.9408 C273.0261,360.8308 271.8321,355.6128 270.9871,350.3678 C268.7141,336.2778 275.4621,327.8288 289.9451,327.2248 C301.4241,326.7468 312.9371,327.0458 324.4341,327.0698 C361.4261,327.1438 398.4171,327.2558 435.4081,327.3418 C445.2391,327.3638 455.0701,327.3448 464.9011,327.3448 L464.9011,327.0618" id="Fill-3" fill="#000000"></path>
            <path d="M462.1385,204.7141 C495.7995,204.7141 529.4605,204.7521 563.1215,204.6991 C581.7805,204.6701 600.4395,204.4231 619.0985,204.4011 C628.7145,204.3891 637.1495,207.2061 643.0075,215.4551 C643.1035,215.5911 643.2245,215.7101 643.3165,215.8481 C649.3095,224.7851 648.2865,249.1501 641.5105,257.4611 C637.4935,262.3891 632.1285,264.7891 625.8835,265.3001 C623.3985,265.5031 620.8945,265.5691 618.3995,265.5701 C515.5835,265.5831 412.7685,265.5811 309.9525,265.5801 C308.4525,265.5801 306.9515,265.6151 305.4535,265.5631 C288.2825,264.9721 280.2265,256.8381 279.8885,239.6951 C279.8065,235.5431 279.6525,231.3711 279.9365,227.2361 C280.8965,213.2851 290.0865,204.7191 304.1655,204.7071 C356.8235,204.6621 409.4805,204.6891 462.1385,204.6891 L462.1385,204.7141 Z" id="Fill-5" fill="#000000"></path>
            <path d="M763.7101,289.4333 C763.6441,280.0963 756.0641,272.3023 747.1121,272.3703 C737.8391,272.4393 729.5401,280.5513 729.6661,289.4213 C729.7961,298.5753 738.3721,307.0353 747.3971,306.9123 C756.0861,306.7933 763.7741,298.5563 763.7101,289.4333 M835.0341,284.9183 C844.3371,285.0073 852.2291,277.6243 852.4341,268.6413 C852.6371,259.7313 844.4571,251.2593 835.5211,251.1263 C826.4771,250.9903 817.6361,259.5903 817.6961,268.4653 C817.7541,277.1743 825.8221,284.8313 835.0341,284.9183 M658.9751,262.8703 C658.8041,260.8503 658.6031,259.5673 658.6001,258.2833 C658.5661,242.9563 658.6671,227.6273 658.4731,212.3033 C658.4281,208.6703 659.5601,207.3903 663.1961,207.0983 C696.3941,204.4283 729.6091,201.9183 762.7601,198.7343 C814.5251,193.7633 865.9371,186.5533 916.0491,171.9963 C916.3681,171.9033 916.6961,171.8403 917.0191,171.7573 C921.0341,170.7273 925.5921,168.7433 928.6331,172.7263 C931.6981,176.7403 929.7911,181.3873 927.8031,185.5063 C923.7401,193.9223 916.8831,199.2713 908.2611,202.3593 C893.2151,207.7473 878.0641,212.8413 863.0431,218.2963 C858.5421,219.9303 854.2011,222.1303 850.0251,224.4913 C846.8681,226.2773 846.2781,229.2323 848.8421,232.0353 C851.5231,234.9683 854.4241,237.7253 857.4211,240.3403 C876.6691,257.1393 874.8431,286.0153 853.6821,298.6893 C838.2391,307.9393 817.6301,304.0603 806.4401,289.7973 C795.6331,276.0233 797.0391,256.3153 809.8331,243.3473 C813.0791,240.0573 816.5361,236.9753 819.6121,232.6733 C817.8261,232.8673 815.9991,232.8823 814.2621,233.2833 C796.9081,237.2873 779.5591,241.3113 762.2421,245.4713 C760.4541,245.9003 757.9211,246.9283 757.4931,248.2493 C757.0841,249.5113 758.6461,251.8353 759.9141,253.1333 C763.0501,256.3423 766.5361,259.2053 769.8401,262.2533 C786.9921,278.0713 786.5001,304.3833 768.8151,317.8243 C752.9891,329.8513 729.7401,326.6473 718.0501,310.8263 C705.9571,294.4593 709.7871,272.0803 726.7091,260.1333 C730.0381,257.7833 733.3231,255.3683 736.6281,252.9833 C736.4141,252.3313 736.1991,251.6783 735.9851,251.0263 C710.4241,254.9573 684.8641,258.8883 658.9751,262.8703" id="Fill-7" fill="#000000"></path>
            <path d="M94.3259,284.9243 C103.4249,284.9233 111.3529,277.1893 111.3939,268.2753 C111.4329,259.5263 102.8749,251.1243 93.9589,251.1603 C84.9079,251.1973 76.5309,259.5003 76.6229,268.3443 C76.7169,277.4013 84.7509,284.9253 94.3259,284.9243 M165.2599,289.2173 C165.1449,298.4603 173.0469,306.8053 182.0159,306.9113 C190.7789,307.0153 199.2069,298.6793 199.5009,289.6143 C199.7869,280.8193 191.3579,272.4043 182.2099,272.3523 C173.0609,272.3003 165.3759,279.9463 165.2599,289.2173 M192.4799,252.9663 C195.7909,255.3513 199.1179,257.7133 202.4089,260.1253 C214.3259,268.8573 220.1019,280.5283 217.5879,295.2253 C215.1749,309.3243 206.8049,319.0133 193.0249,323.4403 C177.3929,328.4603 160.3419,322.2993 151.8689,308.8633 C143.4419,295.5033 145.4129,276.7013 156.6799,264.9703 C160.9409,260.5343 165.6949,256.5753 170.0329,252.2093 C173.0779,249.1443 172.7309,247.0343 168.8909,246.1103 C149.7959,241.5183 130.6499,237.1423 111.5159,232.7173 C111.0799,232.6163 110.5699,232.8393 108.8399,233.1003 C111.4099,235.6493 113.3089,237.7643 115.4429,239.6083 C124.8859,247.7703 130.6329,257.6113 129.9029,270.5173 C129.0549,285.5263 119.2869,297.4443 103.8079,302.3223 C90.5989,306.4843 74.6029,301.4873 66.0129,290.5133 C56.7179,278.6383 55.5689,263.0343 63.7329,250.3793 C66.7509,245.7013 71.0829,241.8633 74.8789,237.7003 C76.1089,236.3513 77.6279,235.2663 78.8669,233.9253 C83.1259,229.3133 82.9779,225.9043 77.2949,223.2903 C68.8529,219.4063 60.0289,216.3253 51.2799,213.1443 C41.5819,209.6183 31.7249,206.5273 22.0499,202.9433 C13.7499,199.8683 6.6349,195.0763 2.1629,187.0943 C1.5949,186.0803 0.7389,185.0353 0.6759,183.9663 C0.4539,180.1443 -0.7981,175.5913 0.7999,172.6523 C2.8309,168.9183 7.5719,170.4913 11.3199,171.5753 C57.8799,185.0393 105.5099,192.6913 153.6569,197.2813 C190.7859,200.8223 227.9609,203.8893 265.1329,206.9593 C269.5429,207.3233 271.0959,208.5873 271.0059,213.2043 C270.7159,228.0273 270.7629,242.8603 271.0039,257.6843 C271.0759,262.0653 269.8149,263.0833 265.5409,262.3783 C242.7059,258.6133 219.8299,255.0913 196.9619,251.5253 C195.7319,251.3333 194.4449,251.5003 193.1849,251.5003 C192.9499,251.9893 192.7149,252.4773 192.4799,252.9663 Z M466.0667,311.4009 C411.0937,311.4009 356.1207,311.4019 301.1487,311.3979 C297.4937,311.3969 293.8107,311.6279 290.1897,311.2669 C282.2247,310.4719 276.7467,304.3779 276.6247,296.5879 C276.5037,288.8639 281.8647,282.4239 289.5827,281.2229 C291.8747,280.8669 294.2307,280.8049 296.5567,280.8049 C409.1677,280.7949 521.7787,280.8209 634.3897,280.7839 C642.5187,280.7809 649.7717,282.0409 653.2857,290.6469 C657.1327,300.0689 651.0557,310.2619 640.9747,311.2679 C639.3237,311.4329 637.6477,311.3759 635.9827,311.3759 C579.3437,311.3809 522.7057,311.3799 466.0667,311.3799 L466.0667,311.4009 Z" id="Combined-Shape" fill="#000000"></path>
            <path d="M396.4074,161.3202 C428.5654,161.3132 460.7244,161.2722 492.8824,161.3672 C496.6764,161.3782 500.5654,161.7362 504.2404,162.6312 C510.3434,164.1192 513.7364,168.8552 513.8594,175.0462 C513.9814,181.2132 510.7634,186.0762 504.7634,187.8872 C501.6214,188.8362 498.2304,189.3932 494.9514,189.3972 C429.4684,189.4742 363.9854,189.4622 298.5024,189.3802 C295.3804,189.3762 292.1754,188.8642 289.1554,188.0492 C283.2404,186.4532 279.9334,181.6872 279.8924,175.3922 C279.8514,169.1262 282.7104,164.6762 288.6344,162.9482 C292.0974,161.9382 295.8224,161.4072 299.4324,161.3942 C331.7574,161.2792 364.0824,161.3272 396.4074,161.3202" id="Fill-14" fill="#000000"></path>
            <path d="M584.5562,189.4627 C569.5802,189.4697 554.6042,189.5247 539.6292,189.4217 C536.6662,189.4017 533.6362,189.0597 530.7602,188.3617 C524.3512,186.8047 520.9272,182.3307 520.6982,175.7937 C520.4732,169.3317 523.6752,164.5357 529.9872,162.6457 C532.8082,161.8007 535.8642,161.3917 538.8162,161.3827 C569.1002,161.2917 599.3842,161.2977 629.6682,161.3627 C632.6382,161.3687 635.6842,161.6277 638.5592,162.3277 C645.4042,163.9927 648.7772,168.6827 648.6852,175.7817 C648.5942,182.7207 645.3192,186.8657 638.3552,188.4237 C635.6242,189.0347 632.7782,189.3947 629.9822,189.4117 C614.8412,189.5057 599.6982,189.4557 584.5562,189.4627" id="Fill-16" fill="#000000"></path>
            <path d="M407.855,81.3149 C407.447,84.0289 407.299,86.8229 406.499,89.4169 C406.195,90.4049 404.396,90.9329 403.279,91.6699 C402.866,90.4069 401.799,88.8959 402.167,87.9289 C403.125,85.4069 404.711,83.1229 406.046,80.7439 C406.649,80.9339 407.252,81.1249 407.855,81.3149" id="Fill-66" fill="#FFFFFF"></path>
            <path d="M565.9186,61.0711 C568.0796,63.0791 570.3626,64.9781 572.3186,67.1691 C572.8316,67.7441 572.3286,69.2251 572.2926,70.2901 C571.1216,70.1811 569.3396,70.5121 568.8886,69.8851 C567.1716,67.4991 565.8846,64.8041 564.4366,62.2251 C564.9306,61.8401 565.4246,61.4561 565.9186,61.0711" id="Fill-68" fill="#FFFFFF"></path>
            <path d="M471.5743,51.5496 C473.7093,53.4196 476.0353,55.1246 477.8773,57.2496 C478.5223,57.9926 477.9773,59.7676 477.9753,61.0716 C476.6833,60.7246 474.8453,60.7916 474.2063,59.9496 C472.5683,57.7926 471.4653,55.2306 470.1483,52.8316 C470.6233,52.4036 471.0993,51.9766 471.5743,51.5496" id="Fill-70" fill="#FFFFFF"></path>
            <path d="M636.241,99.2713 C634.959,101.9873 633.814,104.7833 632.3,107.3633 C631.913,108.0223 630.356,107.9953 629.337,108.2833 C629.11,107.1193 628.289,105.5303 628.762,104.8683 C630.482,102.4653 632.636,100.3733 634.626,98.1633 C635.164,98.5333 635.703,98.9023 636.241,99.2713" id="Fill-72" fill="#FFFFFF"></path>
            <path d="M345.039,44.4464 C343.733,46.9954 342.608,49.6664 341.013,52.0184 C340.529,52.7324 338.747,52.5654 337.56,52.8014 C337.497,51.6154 336.913,50.0144 337.467,49.3184 C339.239,47.0904 341.432,45.1974 343.463,43.1754 C343.989,43.5984 344.514,44.0224 345.039,44.4464" id="Fill-74" fill="#FFFFFF"></path>
            <path d="M510.1844,113.5939 C512.2904,115.5499 514.5584,117.3699 516.3984,119.5499 C516.9034,120.1479 516.1284,121.8269 515.9404,123.0089 C514.8774,122.8069 513.2954,122.9729 512.8444,122.3369 C511.1954,120.0139 509.9234,117.4239 508.5094,114.9339 C509.0674,114.4869 509.6264,114.0409 510.1844,113.5939" id="Fill-76" fill="#FFFFFF"></path>
            <path d="M303.0626,114.852 C301.6866,117.383 300.4726,120.026 298.8326,122.372 C298.3696,123.034 296.6606,122.826 295.5226,123.017 C295.4066,121.966 294.7936,120.512 295.2616,119.934 C297.1326,117.624 299.3386,115.586 301.4206,113.447 C301.9686,113.915 302.5156,114.384 303.0626,114.852" id="Fill-78" fill="#FFFFFF"></path>
        </g>
    </g>
</svg>