<?xml version="1.0" encoding="UTF-8"?>
<svg width="330px" height="76px" viewBox="0 0 330 76" version="1.1" xmlns="http://www.w3.org/2000/svg" xmlns:xlink="http://www.w3.org/1999/xlink">
    <!-- Generator: Sketch 41 (35326) - http://www.bohemiancoding.com/sketch -->
    <title>Imported Layers</title>
    <desc>Created with Sketch.</desc>
    <defs></defs>
    <g id="Page-1" stroke="none" stroke-width="1" fill="none" fill-rule="evenodd">
        <g id="Log-In" transform="translate(-23.000000, -76.000000)" fill="#9AC93B">
            <g id="dinosaurio-+-Imported-Layers" transform="translate(23.000000, 76.000000)">
                <g id="Imported-Layers">
                    <path d="M79.6527013,17.2498889 C79.6527013,12.5639259 79.6547987,7.87725926 79.6509534,3.1912963 C79.6502542,2.42109259 79.5223093,1.66637037 80.7363877,1.70753704 C87.1850212,1.92674074 93.6577754,1.24942593 100.086833,2.12448148 C108.590975,3.28172222 113.046674,8.47716667 113.029195,17.1323704 C113.026398,18.5323889 113.007172,19.9609074 112.746737,21.3282037 C111.538252,27.6713889 107.541197,31.4175556 100.815,32.321463 C94.0996398,33.2236111 87.3318432,32.5512222 80.5902648,32.7401667 C79.4237288,32.7732407 79.6596928,31.9643333 79.6582945,31.3081296 C79.6481568,26.6221667 79.6527013,21.9358519 79.6527013,17.2498889 Z M62.9712712,55.2351111 C62.5398941,50.9762963 62.5947775,46.6991852 62.5280085,42.4284074 C62.3794386,32.9445926 62.4685805,23.4621852 62.7052436,13.9811852 C62.7370551,12.7060741 62.8712924,11.4337778 62.979661,9.85044444 C63.8008157,13.4664259 63.9049894,40.5896296 63.2250636,55.2351111 C63.1404661,55.406463 63.0558686,55.4156111 62.9712712,55.2351111 Z M102.285667,34.4529815 L97.650286,34.4529815 C100.015519,35.8850185 102.278326,36.1330741 104.458983,36.5982222 C108.509873,37.4620185 112.634174,37.6017037 116.738549,37.3793333 C118.820975,37.2667407 119.841737,38.1150556 120.789788,39.7993704 C123.750699,45.0592037 126.912617,50.205037 129.852203,55.4768333 C130.738729,57.0668519 132.031112,57.9668889 133.490593,58.7993704 C136.084799,60.2792593 138.445487,62.1613148 141.207489,63.3526852 C141.746536,63.6865926 142.342913,63.5138333 142.908877,63.5155926 C143.856928,63.5187593 143.99571,63.9807407 143.713252,64.7551667 C133.410191,64.754463 123.107129,64.7474259 112.803718,64.7643148 C111.962987,64.7657222 111.302288,64.7048519 110.803792,63.8449259 C105.194142,54.1668889 99.5491843,44.5096111 93.9136653,34.8474074 C91.6809216,34.4375 89.427553,34.6809815 87.1871186,34.6890741 C84.7135169,34.6978704 82.2290784,34.4283519 79.7631674,34.8456481 C79.7268114,42.0364444 79.6929025,49.2275926 79.6495551,56.418037 C79.6460593,56.9862778 79.7869386,57.4081481 80.3200424,57.7167222 C83.5141208,59.5653519 86.5397034,61.7039074 89.8578814,63.3396667 C90.4993538,63.7935556 91.2852013,63.296037 91.9403072,63.6591481 C92.1336229,65.0644444 91.1177542,64.7467222 90.3717585,64.7477778 C82.4161017,64.7562222 74.4600953,64.7530556 66.5044386,64.7530556 C60.2330403,64.7530556 53.9612924,64.7551667 47.6895445,64.7502407 C46.9771081,64.749537 46.0731038,65.0077963 46.1514089,63.7534444 C46.8054661,63.2210926 47.6486441,63.7844074 48.3233263,63.3723889 C51.68625,61.2317222 55.1837606,59.3021667 58.377839,56.8962037 C58.6802225,56.475037 58.5533263,55.9912407 58.5533263,55.5352407 C58.5603178,39.9876111 58.5603178,24.4399815 58.5533263,8.89235185 C58.5529767,8.43705556 58.6840678,7.95255556 58.3757415,7.5335 C55.4508369,5.7672037 52.4951695,4.04981481 49.6199047,2.20611111 C48.7463136,1.64561111 47.9202648,1.28918519 46.9005508,1.35885185 C46.4142903,1.39192593 46.1272881,1.18714815 46.1643432,0.642833333 C46.1958051,0.183314815 46.4845551,0.0714259259 46.8704873,0.0693148148 C47.3361229,0.0665 47.8017585,0.0633333333 48.2673941,0.0629814815 C67.0067797,0.0503148148 85.7461653,0.0376481481 104.485551,0.0253333333 C105.3934,0.443685185 106.385498,-0.0168888889 107.303136,0.298722222 C113.389258,1.15688889 119.474682,2.00907407 125.032246,4.92838889 C129.553316,7.30338889 132.726769,10.7796852 133.961822,15.8657037 C134.106197,17.1439815 134.134163,18.4222593 133.948888,19.6994815 C132.295392,26.564463 126.852489,29.2230556 121.006176,31.2458519 C115.569915,33.1265 109.867278,33.7584259 104.15625,34.2080926 C103.553581,34.4491111 102.883093,34.1686852 102.285667,34.4529815" id="Fill-1"></path>
                    <path d="M257.939396,13.0617963 C269.405148,25.4990556 280.486716,38.2744444 291.212415,51.3633333 C291.332669,51.7137778 291.172913,51.7904815 290.865636,51.7215185 C279.42715,39.2627963 268.317966,26.5145 257.614989,13.4097778 C257.476907,13.0610926 257.656939,13.0132407 257.939396,13.0617963 M329.633644,64.7502407 C312.613824,64.752 295.594004,64.7537593 278.574184,64.7551667 C278.005074,62.759463 279.868316,63.9371111 280.380445,63.3526852 C283.130911,61.3112407 285.881028,59.2694444 288.751748,57.1379259 C285.912489,53.8241852 283.056102,50.5160741 280.230127,47.1815741 C278.513008,45.1563148 276.817214,43.1117037 275.160222,41.0368333 C273.870985,39.4228889 273.539587,39.3479444 272.087447,40.8841296 C268.642373,44.5279074 265.229809,48.2026481 261.805011,51.8664815 C261.378528,52.3228333 260.767818,52.7193704 261.558559,53.4170926 C265.220371,56.6485 268.535403,60.2616667 272.336695,63.3396667 C272.978517,63.7935556 273.764015,63.296037 274.419121,63.6591481 C274.612087,65.0640926 273.597267,64.7470741 272.851271,64.7477778 C262.691886,64.7551667 252.53285,64.7530556 242.373464,64.7530556 C240.573845,64.7530556 238.774227,64.754463 236.974608,64.7551667 C236.64321,63.8769444 236.941398,63.4990556 237.874767,63.5152407 C238.421155,63.5250926 238.99446,63.6651296 239.518125,63.3653519 C245.739534,59.8260741 251.964788,56.294537 258.173612,52.7330926 C258.664767,52.4512593 259.1741,52.0395926 259.441875,51.5568519 C260.168294,50.2458519 261.31875,49.340537 262.312945,48.2916667 C265.595816,44.8255741 268.915392,41.3950185 272.331801,37.8356852 C269.255879,34.2654444 266.165625,30.7244074 263.126758,27.139037 C259.956102,23.3988519 256.899756,19.5587407 253.668623,15.8723889 C251.347436,13.2236481 249.094068,10.5136852 246.752606,7.88922222 C245.181261,6.12785185 242.678644,5.64335185 240.721716,4.34255556 C239.401367,3.46468519 237.876165,2.90207407 236.531345,2.05516667 C235.528761,1.42359259 234.49786,1.32437037 233.391451,1.36237037 C232.960424,1.37714815 232.560858,1.31733333 232.545127,0.738537037 C232.529396,0.16712963 232.899947,0.0728333333 233.347055,0.0682592593 C233.696282,0.0647407407 234.045858,0.0629814815 234.395434,0.0629814815 C250.240328,0.0629814815 266.085572,0.0629814815 281.930816,0.0633333333 C282.338422,0.0633333333 282.746028,0.0636851852 283.153284,0.0781111111 C283.568581,0.0928888889 283.788114,0.309277778 283.778676,0.740648148 C283.769237,1.1875 283.502511,1.34231481 283.105042,1.35990741 C279.033178,1.54005556 277.077648,5.14794444 274.066049,7.04548148 C273.50428,7.39944444 274.070593,7.8652963 274.321939,8.16190741 C278.281239,12.8200741 282.276197,17.4476296 286.209629,22.1272593 C286.727352,22.743 286.900742,22.3872778 287.272341,22.0948889 C288.658411,21.0073148 289.6159,19.5270741 290.804809,18.2632222 C292.844936,16.0937037 294.982246,14.0153148 297.12375,11.9457222 C297.829195,11.2638333 298.102564,10.7972778 297.227924,9.98907407 C294.793824,7.74003704 292.412511,5.43435185 290.36679,2.79862963 C289.740699,1.99183333 289.012532,1.17166667 287.761398,1.35251852 C287.330021,1.41514815 286.750424,1.46792593 286.734693,0.754018519 C286.716165,-0.0897222222 287.374767,0.10837037 287.863475,0.0650925926 C287.979534,0.0548888889 288.096642,0.0629814815 288.213051,0.0629814815 C298.232606,0.0629814815 308.252511,0.0562962963 318.272066,0.0816296296 C318.809015,0.083037037 319.762309,-0.326166667 319.749025,0.726574074 C319.736091,1.76735185 318.78035,1.36518519 318.25179,1.33844444 C317.143983,1.28214815 316.230191,1.63787037 315.304513,2.19801852 C312.162871,4.09942593 309.0866,6.1472037 305.805477,7.77135185 C300.676843,10.309963 297.173739,14.6296481 293.331547,18.603463 C291.870667,20.1153704 290.499979,21.7201667 288.978972,23.1669815 C288.121462,23.9836296 288.070074,24.4843148 288.867108,25.4156667 C296.124311,33.8974074 303.326631,42.4255926 310.545032,50.9407593 C311.035837,51.5199074 311.573485,52.0677407 312.002415,52.6912222 C315.74393,58.1319074 321.605625,60.5142963 327.144311,63.3653519 C327.728803,63.6767407 328.357691,63.4927222 328.965254,63.5215741 C329.890932,63.5655556 329.998602,64.0173333 329.633644,64.7502407" id="Fill-2"></path>
                    <path d="M163.99357,54.5366852 C163.35839,39.3915741 163.433898,24.2482222 164.155773,9.10557407 C164.965392,24.251037 165.097881,39.398963 164.303994,54.5507593 C164.192828,54.7150741 164.089703,54.7024074 163.99357,54.5366852 M224.852002,61.9181852 C224.653792,64.7530556 224.653792,64.7530556 221.700572,64.7530556 C197.607076,64.7530556 173.51393,64.7572778 149.420784,64.7315926 C148.704852,64.730537 147.523983,65.3051111 147.528528,63.7534444 C148.273125,63.1866111 149.217331,63.8364815 149.974862,63.3481111 C153.235011,61.3235556 156.495508,59.2993519 159.756006,57.2747963 C160.053845,56.8522222 159.930794,56.3684259 159.930794,55.9117222 C159.937087,40.2317963 159.937087,24.5522222 159.930794,8.87264815 C159.930445,8.4162963 160.056992,7.93214815 159.754258,7.51062963 C156.65946,5.68557407 153.522712,3.92631481 150.49678,1.99183333 C149.677023,1.46792593 148.931727,1.36659259 148.068623,1.36377778 C147.659269,1.36272222 147.226494,1.38207407 147.191186,0.783925926 C147.150636,0.0886666667 147.612775,0.0619259259 148.107775,0.0647407407 C148.573061,0.0672037037 149.038347,0.0629814815 149.503633,0.0629814815 C173.878888,0.0629814815 198.253792,0.0633333333 222.629047,0.0608703704 C223.326451,0.0608703704 224.024206,0.0341296296 224.721261,0.0197037037 C225.019449,0.297666667 224.943591,0.666055556 224.943591,1.00840741 C224.947436,8.31953704 224.947436,15.6306667 224.943591,22.9425 C224.943591,23.2841481 225.019449,23.652537 224.721261,23.9305 C224.462225,23.8358519 223.988549,23.7626667 223.976663,23.6426852 C223.730561,21.1649444 221.729936,19.947537 220.235148,18.4117037 C216.538379,14.613463 212.70143,10.9524444 209.044163,7.11690741 C207.450095,5.44561111 206.069269,3.56637037 204.272447,2.08507407 C203.773951,1.84475926 203.241547,1.9475 202.724523,1.9467963 C196.034682,1.93975926 189.344492,1.97212963 182.65465,1.91618519 C181.363316,1.90527778 180.847691,2.13187037 180.861674,3.61457407 C180.941377,11.9284815 180.924597,20.2434444 180.873559,28.5577037 C180.865869,29.792 181.216494,30.1938148 182.44036,30.1216852 C185.330307,29.9517407 188.235636,30.321537 191.123485,29.9190185 C194.447606,26.4335741 197.663358,22.8334259 201.141992,19.5122963 C202.890922,17.8420556 203.842818,16.1450741 203.455487,13.7493148 C204.094163,13.4491852 204.596854,13.4460185 204.663623,14.3326852 C204.685646,14.6236667 204.670964,14.9167593 204.670964,15.2091481 C204.670964,25.2601481 204.680053,35.3107963 204.652087,45.3614444 C204.649989,46.0412222 205.138697,47.405 203.468072,46.7269815 C203.617341,42.0223704 203.644608,41.9878889 199.33643,38.5689444 C196.873316,36.6147593 194.325254,34.7728148 192.015953,32.6233519 C191.573739,32.2113333 190.959883,31.9664444 190.27786,31.9720741 C187.484047,31.9938889 184.689534,32.0128889 181.896419,31.9629259 C180.970042,31.9463889 180.712055,32.2693889 180.714852,33.1768148 C180.741419,42.7264259 180.742818,52.2763889 180.712754,61.8256481 C180.709958,62.7622778 181.011642,63.0142037 181.911451,63.0103333 C188.954364,62.9793704 195.997977,63.0244074 203.04054,62.9744444 C205.114926,62.9596667 206.068919,61.0498148 207.126388,59.766963 C208.862383,57.6600741 210.889926,55.8427593 212.591314,53.7042037 C214.639481,51.1286481 216.96696,48.7768704 219.183273,46.3367778 C220.742383,44.6211481 222.302542,42.9058704 223.894513,41.2212037 C224.466419,40.6153148 225.070487,40.0600926 224.896748,39.1231111 C224.732447,38.2389074 225.337564,38.3708519 225.846547,38.3624074 C226.110127,39.0513333 226.012945,39.7515185 225.910169,40.4520556 C225.877659,41.6202037 225.845847,42.788 225.812987,43.9561481 C225.414121,45.1098704 225.821727,46.3198889 225.57178,47.4845185 C225.530879,48.756463 225.490678,50.0280556 225.450127,51.3 C225.069089,52.4730741 225.496621,53.7056111 225.191441,54.8843148 C225.163475,56.0433148 225.135159,57.201963 225.106843,58.3606111 C224.710074,59.5238333 225.144597,60.7475741 224.852002,61.9181852" id="Fill-3"></path>
                    <path d="M313.368559,75.2667407 C309.389682,74.8997593 305.410805,75.354 301.43018,75.2783519 C298.717468,75.2276852 296.001261,75.3487222 293.286451,75.3927037 C290.9359,75.5827037 288.581155,75.4254259 286.228506,75.4810185 C285.601017,75.4961481 284.961642,75.3870741 284.35303,75.6372407 C283.898581,75.5876296 283.443432,75.4929815 282.989333,75.4950926 C271.735424,75.5443519 260.481864,75.603463 249.227956,75.6646852 C248.998983,75.6660926 248.769661,75.7167593 248.541038,75.7445556 C243.338294,75.9401852 238.133104,75.7741111 232.929661,75.8349815 C232.240996,75.8434259 231.539047,75.7216852 230.86786,75.9890926 C230.352934,75.9394815 229.838358,75.8465926 229.323782,75.8465926 C201.940074,75.8392037 174.557066,75.8392037 147.173358,75.8462407 C146.657733,75.8462407 146.142458,75.9349074 145.626833,75.9820556 C142.920064,75.6400556 140.202108,75.8990185 137.490095,75.8370926 C134.312097,75.764963 131.131303,75.9250556 127.953655,75.7547593 C123.258146,75.7058519 118.562987,75.6467407 113.867129,75.6112037 C107.254894,75.5608889 100.642309,75.5271111 94.0300742,75.4954444 C93.749714,75.494037 93.4690042,75.5876296 93.1886441,75.6372407 C90.4941102,75.2797593 87.7869915,75.579537 85.0879131,75.4764444 C84.3429661,75.4482963 83.5910275,75.5823519 82.8544703,75.3747593 C76.1607839,75.3677222 69.4691949,75.031 62.7744597,75.2667407 C60.6221186,74.9011667 58.442161,75.327963 56.2877225,75.0317037 C54.3115678,74.9856111 52.3354131,74.9388148 50.3596081,74.8930741 C50.1337818,74.6992037 50.1344809,74.5039259 50.3568114,74.3075926 C52.3336653,74.2643148 54.3108686,74.2213889 56.2877225,74.1781111 C58.442161,73.8815 60.6228178,74.3079444 62.7748093,73.9427222 C66.7526377,74.3121667 70.7301165,73.8519444 74.7100424,73.9349815 C77.4231038,73.9912778 80.1393114,73.874463 82.8544703,73.8347037 C85.6122775,73.5968519 88.375678,73.8002222 91.1355826,73.7273889 C91.8214513,73.7094444 92.5202542,73.8375185 93.1886441,73.5729259 C95.4940996,73.9033148 97.8124894,73.712963 100.122839,73.7066296 C109.113591,73.6841111 118.104343,73.6063519 127.095095,73.5447778 C127.381398,73.5426667 127.667701,73.4860185 127.954004,73.4547037 C133.156398,73.2819444 138.36054,73.4293704 143.563284,73.3748333 C144.252299,73.3674444 144.953898,73.4814444 145.626833,73.2277593 C146.142458,73.2745556 146.657733,73.3632222 147.173358,73.3632222 C174.671727,73.3699074 202.169746,73.3699074 229.667765,73.3639259 C230.184788,73.3639259 230.701462,73.2819444 231.218485,73.2386667 C234.735922,73.5563889 238.261398,73.2960185 241.781981,73.3776481 C244.033951,73.4297222 246.288369,73.2819444 248.53929,73.4554074 C253.350858,73.5053704 258.163125,73.568 262.975392,73.6045926 C269.588326,73.6538519 276.20161,73.6869259 282.814894,73.7143704 C283.327373,73.7164815 283.840551,73.6221852 284.35303,73.5729259 C286.695191,73.9233704 289.051684,73.6352037 291.399439,73.7316111 C292.028676,73.7569444 292.663856,73.6538519 293.286451,73.8167593 C299.980837,73.8579259 306.673125,74.1700185 313.368909,73.9427222 C315.5209,74.3079444 317.701208,73.8815 319.855646,74.1781111 C321.831801,74.2242037 323.807606,74.2702963 325.783411,74.3170926 C326.008538,74.5067407 326.009587,74.6949815 325.781314,74.8825185 C323.806557,74.9293148 321.831801,74.9761111 319.856695,75.0229074 C317.702606,75.3332407 315.5209,74.8990556 313.368559,75.2667407" id="Fill-4"></path>
                    <path d="M10.837214,31.5864444 C14.1382627,32.3900741 15.4264513,29.7029815 17.1596504,27.837463 C17.3847775,27.5946852 17.5679555,27.5109444 17.8304873,27.4483148 C18.2069809,29.903537 17.9004025,32.3731852 17.9930403,34.8347407 C17.9787076,35.1932778 17.8196504,35.4483704 17.4739195,35.5694074 C16.6272458,34.5652222 15.4201589,33.9997963 14.5210487,33.0262222 C13.5747458,32.0016296 12.1823835,32.3186481 10.9413877,32.3460926 C10.2950212,32.3605185 10.4984746,32.9210185 10.4963771,33.2767407 C10.479947,35.850537 10.507214,38.4253889 10.4743538,40.9988333 C10.4656144,41.6807222 10.6739619,41.9094259 11.3591314,41.8953519 C13.2765572,41.8562963 15.1960805,41.8460926 17.1128072,41.9009815 C17.8112606,41.921037 18.2377436,41.5702407 18.544322,41.0896111 C20.1076271,38.6365 22.5735381,36.9831481 24.1892797,34.582463 C25.1191525,34.9895556 24.5154343,35.6865741 24.5045975,36.2717037 C24.401822,38.0221667 24.3025424,39.7729815 24.1941737,41.5227407 C24.1557203,42.1458704 24.0309216,42.5547222 23.1926377,42.5505 C15.5295763,42.5114444 7.86616525,42.5276296 0.177584746,42.5276296 C0.203103814,41.9090741 0.680625,42.0895741 0.924279661,41.9382778 C4.01383475,40.0189259 4.01663136,40.0235 4.01663136,36.240037 C4.01663136,32.9586667 3.95545551,29.675537 4.05054025,26.3973333 C4.08305085,25.2837222 3.774375,24.6123889 2.81304025,24.1155741 C1.89190678,23.6395185 1.02565678,23.0554444 0.109067797,22.5033889 C0.481366525,21.9956667 0.981610169,22.2528704 1.38816737,22.2518148 C8.43177966,22.2317593 15.4760911,22.2841852 22.5190042,22.1997407 C24.0288242,22.1821481 24.4147564,22.6708704 24.3245657,24.0884815 C24.21375,25.8315556 24.2983475,27.588 24.2983475,29.7061481 C22.1400636,27.7920741 20.2474576,26.0395 18.6914936,23.999463 C18.0748411,23.1912593 17.5459322,22.8362407 16.5887924,22.8710741 C14.6731144,22.9414444 12.7546398,22.9446111 10.837214,22.9752222 C10.5365784,25.8456296 10.536928,28.716037 10.837214,31.5864444" id="Fill-5"></path>
                    <path d="M51.1311229,40.8176296 C51.2171186,42.0997778 50.7633686,42.5818148 49.3566737,42.5663333 C41.9736229,42.4843519 34.5888242,42.5279815 26.9897352,42.5279815 C27.6308581,41.6610185 28.5250742,41.313037 29.1798305,41.0206481 C30.7466314,40.320463 30.8777225,39.2367593 30.8469597,37.7755185 C30.7676059,34.0293519 30.760964,30.2793148 30.8518538,26.5342037 C30.8850636,25.1676111 30.5991102,24.2886852 29.2228284,23.7996111 C28.441875,23.522 27.7825742,22.8988704 26.8932521,22.3165556 L41.0937394,22.3165556 C41.032214,22.4917778 41.0217267,22.6515185 40.9626483,22.6726296 C38.3069174,23.6166481 37.0229237,25.1619815 37.3137712,28.3202037 C37.6878178,32.3844444 37.4305297,36.5099074 37.3850847,40.6086296 C37.3745975,41.5406852 37.5906356,41.7648148 38.577839,41.9375741 C42.2539831,42.581463 44.726536,40.6920185 47.0970127,38.3215926 C48.0961017,37.3223333 49.2245339,36.430037 50.3956144,35.6418889 C50.8144068,35.3597037 50.9213771,34.9804074 51.3621928,34.411463 L51.3621928,38.8637963 C51.0898729,39.4918519 51.3048623,40.177963 51.1311229,40.8176296" id="Fill-6"></path>
                </g>
            </g>
        </g>
    </g>
</svg>